<?xml version="1.0" encoding="utf-8"?>
<!-- Generator: Adobe Illustrator 21.0.2, SVG Export Plug-In . SVG Version: 6.00 Build 0)  -->
<svg version="1.1" id="Layer_1" xmlns="http://www.w3.org/2000/svg" xmlns:xlink="http://www.w3.org/1999/xlink" x="0px" y="0px"
	 viewBox="0 0 588 540.3" style="enable-background:new 0 0 588 540.3;" xml:space="preserve">
<style type="text/css">
	.st0{fill:url(#SVGID_1_);}
	.st1{fill:url(#SVGID_2_);}
	.st2{fill:url(#SVGID_3_);}
	.st3{fill:url(#SVGID_4_);}
	.st4{fill:url(#SVGID_5_);}
</style>
<g>
	<linearGradient id="SVGID_1_" gradientUnits="userSpaceOnUse" x1="294.125" y1="102.0025" x2="294.125" y2="496.5137">
		<stop  offset="0" style="stop-color:#942080"/>
		<stop  offset="1" style="stop-color:#29285B"/>
	</linearGradient>
	<path class="st0" d="M462.2,294.6L364,196.4c-18.7-18.7-43.5-29-70-29c-26.4,0-51.3,10.3-70,29L126,294.6
		c-49.2,49.1-49.2,129.1,0,178.3c23.8,23.8,55.5,36.9,89.1,36.9c29.1,0,56.6-9.8,79-27.8c22.3,18,49.9,27.8,78.9,27.8
		c33.7,0,65.3-13.1,89.1-36.9c23.8-23.8,36.9-55.5,36.9-89.1C499.1,350,486,318.4,462.2,294.6z M441.8,452.5
		C423.4,470.8,399,481,373,481c-26,0-50.4-10.1-68.8-28.5c0,0-69.5-69.4-69.5-69.4c-13.7-13.7-13.7-36,0-49.8
		c13.7-13.7,36-13.7,49.8,0c5.6,5.6,14.8,5.6,20.4,0c13.7-13.7,36-13.7,49.8,0c13.7,13.7,13.7,36.1,0,49.8l-33.1,33.1
		c-5.6,5.6-5.6,14.8,0,20.4c5.6,5.6,14.8,5.6,20.4,0l33.1-33.1c25-25,25-65.6,0-90.5c-21.8-21.8-55.5-24.6-80.3-8.3
		c-24.8-16.3-58.5-13.5-80.3,8.3c-25,25-25,65.6,0,90.5l58.5,58.5c-16.6,12.4-36.7,19-57.8,19c-26,0-50.4-10.1-68.8-28.5
		c-37.9-37.9-37.9-99.6,0-137.5l98.1-98.1c13.2-13.2,30.9-20.5,49.6-20.5c18.7,0,36.3,7.3,49.6,20.5l98.1,98.1
		c18.4,18.4,28.5,42.8,28.5,68.8C470.3,409.7,460.2,434.1,441.8,452.5z"/>
	<g>
		<g>
			<linearGradient id="SVGID_2_" gradientUnits="userSpaceOnUse" x1="506.4475" y1="102.002" x2="506.4475" y2="496.5137">
				<stop  offset="0" style="stop-color:#942080"/>
				<stop  offset="1" style="stop-color:#29285B"/>
			</linearGradient>
			<path class="st1" d="M506.5,283.3L506.5,283.3c-1.5,0-3.1-0.1-4.6-0.2c-35.3-2.5-62-33.3-59.4-68.6c2.4-33.4,30.5-59.6,64-59.6
				c1.5,0,3.1,0.1,4.6,0.2c35.3,2.5,62,33.3,59.4,68.6C568.1,257.1,540,283.3,506.5,283.3z M506.4,183.8
				c-18.4,0-33.9,14.4-35.2,32.8c-1.4,19.4,13.3,36.4,32.7,37.8c19.5,1.4,36.4-13.5,37.8-32.7c1.4-19.4-13.3-36.4-32.7-37.8
				C508.1,183.8,507.3,183.8,506.4,183.8z"/>
		</g>
		<g>
			<linearGradient id="SVGID_3_" gradientUnits="userSpaceOnUse" x1="382.2226" y1="102.0023" x2="382.2226" y2="496.5154">
				<stop  offset="0" style="stop-color:#942080"/>
				<stop  offset="1" style="stop-color:#29285B"/>
			</linearGradient>
			<path class="st2" d="M382.2,158.7L382.2,158.7c-18.6,0-36.3-8.1-48.5-22.2c-11.2-13-16.7-29.5-15.5-46.6c1.2-17.1,9-32.7,22-43.9
				c11.7-10.1,26.6-15.7,42-15.7c18.6,0,36.3,8.1,48.5,22.2c11.2,13,16.7,29.5,15.5,46.6c-1.2,17.1-9,32.7-22,43.9
				C412.6,153.2,397.7,158.7,382.2,158.7z M382.2,59.2c-8.5,0-16.7,3.1-23.1,8.6C351.9,74,347.6,82.6,347,92
				c-0.7,9.4,2.4,18.5,8.5,25.7c6.7,7.8,16.5,12.2,26.7,12.2c8.5,0,16.7-3.1,23.1-8.6c7.1-6.2,11.4-14.8,12.1-24.2
				c0.7-9.4-2.4-18.5-8.5-25.7C402.2,63.6,392.5,59.2,382.2,59.2z"/>
		</g>
		<g>
			<linearGradient id="SVGID_4_" gradientUnits="userSpaceOnUse" x1="206.3015" y1="102.0016" x2="206.3015" y2="496.5122">
				<stop  offset="0" style="stop-color:#942080"/>
				<stop  offset="1" style="stop-color:#29285B"/>
			</linearGradient>
			<path class="st3" d="M206.3,158.5C206.3,158.5,206.4,158.5,206.3,158.5c-1.5,0-3.1-0.1-4.6-0.2c-17.1-1.2-32.7-9-43.9-22
				c-11.2-13-16.7-29.5-15.5-46.6c2.4-33.4,30.5-59.6,64-59.6c1.5,0,3.1,0.1,4.6,0.2c17.1,1.2,32.7,9,43.9,22
				c11.2,13,16.7,29.5,15.5,46.6C267.9,132.3,239.8,158.5,206.3,158.5z M206.3,58.9c-18.4,0-33.9,14.4-35.2,32.8
				c-1.4,19.4,13.3,36.4,32.7,37.8c19.5,1.4,36.4-13.5,37.8-32.7c0.7-9.4-2.4-18.5-8.5-25.7c-6.2-7.1-14.8-11.4-24.2-12.1
				C208,59,207.1,58.9,206.3,58.9z"/>
		</g>
		<g>
			<linearGradient id="SVGID_5_" gradientUnits="userSpaceOnUse" x1="81.7216" y1="102.0012" x2="81.7216" y2="496.5143">
				<stop  offset="0" style="stop-color:#942080"/>
				<stop  offset="1" style="stop-color:#29285B"/>
			</linearGradient>
			<path class="st4" d="M81.8,282.7C81.8,282.7,81.8,282.7,81.8,282.7c-18.6,0-36.3-8.1-48.5-22.2c-11.2-13-16.7-29.5-15.5-46.6
				c1.2-17.1,9-32.7,22-43.9c11.7-10.1,26.6-15.7,42-15.7c18.6,0,36.3,8.1,48.5,22.2c23.2,26.7,20.3,67.4-6.5,90.5
				C112.1,277.1,97.2,282.7,81.8,282.7z M81.7,183.2c-8.5,0-16.7,3.1-23.1,8.6c-7.1,6.2-11.4,14.8-12.1,24.2
				c-0.7,9.4,2.4,18.5,8.5,25.7c6.7,7.8,16.5,12.2,26.7,12.2c8.5,0,16.7-3.1,23.1-8.6c14.7-12.8,16.3-35.1,3.6-49.9
				C101.7,187.6,92,183.2,81.7,183.2z"/>
		</g>
	</g>
</g>
</svg>
