<?xml version="1.0" encoding="utf-8"?>
<!-- Generator: Adobe Illustrator 21.0.2, SVG Export Plug-In . SVG Version: 6.00 Build 0)  -->
<svg version="1.1" id="Layer_1" xmlns="http://www.w3.org/2000/svg" xmlns:xlink="http://www.w3.org/1999/xlink" x="0px" y="0px"
	 viewBox="0 0 593.5 540" style="enable-background:new 0 0 593.5 540;" xml:space="preserve">
<style type="text/css">
	.st0{fill:#FFFFFF;}
</style>
<g>
	<path class="st0" d="M467.7,298.2l-98.1-98.1c-18.7-18.7-43.5-29-70-29c-26.4,0-51.3,10.3-70,29l-98.1,98.1
		c-49.2,49.1-49.2,129.1,0,178.3c23.8,23.8,55.5,36.9,89.1,36.9c29.1,0,56.6-9.8,79-27.8c22.3,18,49.9,27.8,78.9,27.8
		c33.7,0,65.3-13.1,89.1-36.9c23.8-23.8,36.9-55.5,36.9-89.1C504.6,353.7,491.5,322,467.7,298.2z M447.3,456.1
		c-18.4,18.4-42.8,28.5-68.8,28.5c-26,0-50.4-10.1-68.8-28.5c0,0-69.5-69.4-69.5-69.4c-13.7-13.7-13.7-36,0-49.8
		c13.7-13.7,36-13.7,49.8,0c5.6,5.6,14.8,5.6,20.4,0c13.7-13.7,36-13.7,49.8,0c13.7,13.7,13.7,36.1,0,49.8l-33.1,33.1
		c-5.6,5.6-5.6,14.8,0,20.4c5.6,5.6,14.8,5.6,20.4,0l33.1-33.1c25-25,25-65.6,0-90.5c-21.8-21.8-55.5-24.6-80.3-8.3
		c-24.8-16.3-58.5-13.5-80.3,8.3c-25,25-25,65.6,0,90.5l58.5,58.5c-16.6,12.4-36.7,19-57.8,19c-26,0-50.4-10.1-68.8-28.5
		c-37.9-37.9-37.9-99.6,0-137.5l98.1-98.1c13.2-13.2,30.9-20.5,49.6-20.5c18.7,0,36.3,7.3,49.6,20.5l98.1,98.1
		c18.4,18.4,28.5,42.8,28.5,68.8C475.8,413.4,465.7,437.8,447.3,456.1z"/>
	<g>
		<g>
			<path class="st0" d="M512,287L512,287c-1.5,0-3.1-0.1-4.6-0.2c-35.3-2.5-62-33.3-59.4-68.6c2.4-33.4,30.5-59.6,64-59.6
				c1.5,0,3.1,0.1,4.6,0.2c35.3,2.5,62,33.3,59.4,68.6C573.6,260.8,545.5,287,512,287z M511.9,187.4c-18.4,0-33.9,14.4-35.2,32.8
				c-1.4,19.4,13.3,36.4,32.7,37.8c19.5,1.4,36.4-13.5,37.8-32.7c1.4-19.4-13.3-36.4-32.7-37.8C513.6,187.4,512.8,187.4,511.9,187.4
				z"/>
		</g>
		<g>
			<path class="st0" d="M387.7,162.4L387.7,162.4c-18.6,0-36.3-8.1-48.5-22.2c-11.2-13-16.7-29.5-15.5-46.6c1.2-17.1,9-32.7,22-43.9
				c11.7-10.1,26.6-15.7,42-15.7c18.6,0,36.3,8.1,48.5,22.2c11.2,13,16.7,29.5,15.5,46.6c-1.2,17.1-9,32.7-22,43.9
				C418.1,156.8,403.2,162.4,387.7,162.4z M387.7,62.9c-8.5,0-16.7,3.1-23.1,8.6c-7.1,6.2-11.4,14.8-12.1,24.2
				c-0.7,9.4,2.4,18.5,8.5,25.7c6.7,7.8,16.5,12.2,26.7,12.2c8.5,0,16.7-3.1,23.1-8.6c7.1-6.2,11.4-14.8,12.1-24.2
				c0.7-9.4-2.4-18.5-8.5-25.7C407.7,67.3,398,62.9,387.7,62.9z"/>
		</g>
		<g>
			<path class="st0" d="M211.8,162.2C211.8,162.2,211.9,162.2,211.8,162.2c-1.5,0-3.1-0.1-4.6-0.2c-17.1-1.2-32.7-9-43.9-22
				c-11.2-13-16.7-29.5-15.5-46.6c2.4-33.4,30.5-59.6,64-59.6c1.5,0,3.1,0.1,4.6,0.2c17.1,1.2,32.7,9,43.9,22
				c11.2,13,16.7,29.5,15.5,46.6C273.4,136,245.3,162.2,211.8,162.2z M211.8,62.6c-18.4,0-33.9,14.4-35.2,32.8
				c-1.4,19.4,13.3,36.4,32.7,37.8c19.5,1.4,36.4-13.5,37.8-32.7c0.7-9.4-2.4-18.5-8.5-25.7c-6.2-7.1-14.8-11.4-24.2-12.1
				C213.5,62.6,212.6,62.6,211.8,62.6z"/>
		</g>
		<g>
			<path class="st0" d="M87.3,286.4C87.3,286.4,87.3,286.4,87.3,286.4c-18.6,0-36.3-8.1-48.5-22.2c-11.2-13-16.7-29.5-15.5-46.6
				c1.2-17.1,9-32.7,22-43.9c11.7-10.1,26.6-15.7,42-15.7c18.6,0,36.3,8.1,48.5,22.2c23.2,26.7,20.3,67.4-6.5,90.5
				C117.6,280.8,102.7,286.4,87.3,286.4z M87.2,186.8c-8.5,0-16.7,3.1-23.1,8.6c-7.1,6.2-11.4,14.8-12.1,24.2
				c-0.7,9.4,2.4,18.5,8.5,25.7c6.7,7.8,16.5,12.2,26.7,12.2c8.5,0,16.7-3.1,23.1-8.6c14.7-12.8,16.3-35.1,3.6-49.9
				C107.2,191.3,97.5,186.8,87.2,186.8z"/>
		</g>
	</g>
</g>
</svg>
